<svg xmlns="http://www.w3.org/2000/svg" viewBox="0 0 2465.32 1093.22"><defs><style>.cls-1{fill:#333;}.cls-2{opacity:0.15;}.cls-3{fill:#0064cb;}.cls-4{fill:#004b98;}.cls-5{fill:#3397fe;}.cls-6{fill:#d6a637;}.cls-7{fill:#48595f;}.cls-8{fill:#768287;}.cls-9{fill:#d1d3d4;}.cls-10{fill:#edeceb;}.cls-11{fill:#cecece;}.cls-12{opacity:0.1;}.cls-13{fill:#15262c;}.cls-14{fill:#939598;}.cls-15{fill:#3e98c7;}.cls-16{fill:#fff;}</style></defs><g id="Background"><path class="cls-1" d="M1966.36,1899.13c-674.71,0-1228.83-65.8-1238.54-153.41a25.74,25.74,0,0,0-.14,2.63c0,98.68,551.88,178.67,1232.66,178.67S3193,1847,3193,1748.35a25.74,25.74,0,0,0-.14-2.63C3183.14,1833.33,2641.08,1899.13,1966.36,1899.13Z" transform="translate(-727.68 -833.79)"/><path class="cls-2" d="M1960.34,1904c674.71,0,1222.8-70.62,1232.51-158.23-1.62-16.21-18.13-31.9-47.64-46.79-147.91-67.09-622.39-116.17-1184.87-116.17s-1037,49.08-1184.88,116.17c-29.51,14.89-46,30.58-47.64,46.79C737.53,1833.33,1285.62,1904,1960.34,1904Z" transform="translate(-727.68 -833.79)"/></g><g id="Design"><path class="cls-3" d="M1063.09,1293.27c-15.91,16.17,23.32,30,47,51.42s10.62,103.66,65.42,126.21c79.32,32.64,8.16,32.77,69.62,69.85,56.59,34.14,54.17,92.82,70.39,75.75,23.2-24.41-38.2-127.68-34.49-158.58s-6.36-39.09-45.1-48.6c-31-7.63-15.86-92.38-76.67-92.6S1081.47,1274.58,1063.09,1293.27Z" transform="translate(-727.68 -833.79)"/><path class="cls-4" d="M1309.91,1600.33c-1.72-3.37-42.22-82.66-48.6-100-5.67-15.4-27-45.78-60.15-61.74-32.55-15.68-53.38-84.59-54.25-87.52l4.32-1.29c.21.7,21.13,69.93,51.88,84.74,34.33,16.54,56.52,48.19,62.44,64.25,6.28,17.06,48,98.65,48.38,99.48Z" transform="translate(-727.68 -833.79)"/><path class="cls-5" d="M1203.52,1117.48c29.93-10.26,23.71,47.42,36.35,90.1s140.68,18.62,86.94,125.49,68,35.73,31.61,129-3.16,193-42.68,167.62-22.2-142.81-63.29-156.76-47.81-30.23-7.11-68.16-106.63-75.6-70.27-152.2S1168.94,1129.34,1203.52,1117.48Z" transform="translate(-727.68 -833.79)"/><path class="cls-4" d="M1302,1623.57c3.76-16,35.91-156.47,5.91-173.45-26.43-15-25.77-73.18-21.65-128.16,3.65-48.67-58.85-71.42-61.52-72.36l-1.58,4.47c.61.22,61.75,22.49,58.37,67.54-4.24,56.45-4.69,116.37,24,132.64,22.77,12.9,1.8,125.81-8.2,168.23Z" transform="translate(-727.68 -833.79)"/><polygon class="cls-6" points="506.26 739.75 548.99 901.85 644.48 901.85 687.2 739.75 506.26 739.75"/><path class="cls-3" d="M2435.25,1585.72s139.19,36.31,225.65-15.29c117.15-69.91,178.28-176.26,197.57-300.1,21-135-80.69-196.12-144.94-17-47.21,131.61-131.48,256.83-256.29,248.09Z" transform="translate(-727.68 -833.79)"/><path class="cls-4" d="M2441.05,1563.83c121.3,17.55,205.13-45.79,254.09-102,27.58-31.66,52.18-70.41,71.15-112,16.46-36.11,28.51-74.14,33.93-107.09l-2.6,0c-9.09,55.2-41.72,144.94-103.75,216.17-48.5,55.69-131.57,118.41-251.95,101Z" transform="translate(-727.68 -833.79)"/><path class="cls-3" d="M2363.05,1566.89s90.93-53,124.64-232.66-3.33-268.41,16.54-387.87,109.44-160,155.65-41.49,16.82,519.54-224.63,680.85Z" transform="translate(-727.68 -833.79)"/><path class="cls-4" d="M2413.37,1581.49c50.35-50.16,91.56-111.67,122.49-182.83,25.88-59.52,44.63-125.79,55.73-197,19.13-122.61,10.85-234.9.63-280.46l-2.57,2.07c10.14,45.18,18.33,156.6-.67,278.4-16.9,108.32-61.27,261.58-176.68,376.56Z" transform="translate(-727.68 -833.79)"/><path class="cls-7" d="M2492.72,1583.69c-3.13-3.91-17.4-7-31.91-7h-894.3c-14.51,0-28.78,3.13-31.91,7l-163.55,195.72c-4.85,6.06,5.42,33.71,23,33.71H2633.27c17.59,0,27.86-27.65,23-33.71Z" transform="translate(-727.68 -833.79)"/><path class="cls-8" d="M2492.72,1583.69c-3.13-3.91-17.4-7-31.91-7h-894.3c-14.51,0-28.78,3.13-31.91,7l-163.55,195.72c-4.85,6.06,5.42,11,23,11H2633.27c17.59,0,27.86-5,23-11Z" transform="translate(-727.68 -833.79)"/><path class="cls-9" d="M2086.65,1812.59h-146c-8.6,0-15.57-8.75-15.57-19.55h177.13C2102.23,1803.84,2095.25,1812.59,2086.65,1812.59Z" transform="translate(-727.68 -833.79)"/><path class="cls-7" d="M1554,1576.65a92.17,92.17,0,0,0-15.81,1.36c4,2.47,12.29,4.15,22.23,4.15h908c9.93,0,18.21-1.68,22.22-4.15a92.17,92.17,0,0,0-15.81-1.36Z" transform="translate(-727.68 -833.79)"/><path class="cls-10" d="M2162.27,1774.5l-18.06-40.23a4.3,4.3,0,0,0-4-2.37H1886.91a4.29,4.29,0,0,0-4,2.39l-17.88,40.21a2.3,2.3,0,0,0,2.39,3.06h292.44C2161.69,1777.56,2162.93,1776,2162.27,1774.5Z" transform="translate(-727.68 -833.79)"/><path class="cls-11" d="M2144.83,1735.64l-.62-1.37a4.3,4.3,0,0,0-4-2.37H1886.91a4.29,4.29,0,0,0-4,2.39l-.61,1.35Z" transform="translate(-727.68 -833.79)"/><rect class="cls-11" x="1284.61" y="898.1" width="2.76" height="45.66"/><g class="cls-12"><path class="cls-13" d="M2530.28,1716.93H1497.05c-4.06,0-6.72-3.68-4.71-6.52l75-106.15c3.12-4.42,8.82-7.1,15.07-7.1h862.5c6.26,0,12,2.68,15.08,7.1l75,106.15C2537,1713.25,2534.34,1716.93,2530.28,1716.93Z" transform="translate(-727.68 -833.79)"/><path class="cls-13" d="M2530.28,1717.3H1497.05a6.1,6.1,0,0,1-5.09-2.47,3.9,3.9,0,0,1,0-4.61l75-106.15c3.22-4.56,9-7.29,15.46-7.29h862.51c6.46,0,12.24,2.73,15.46,7.29l75,106.15a3.9,3.9,0,0,1,0,4.61A6.07,6.07,0,0,1,2530.28,1717.3Zm-947.87-119.77c-6.14,0-11.63,2.59-14.69,6.92l-75,106.15a3.27,3.27,0,0,0,0,3.86,5.14,5.14,0,0,0,4.3,2.09H2530.28a5.15,5.15,0,0,0,4.3-2.09,3.26,3.26,0,0,0,0-3.86l-75-106.15c-3.06-4.33-8.55-6.92-14.68-6.92Z" transform="translate(-727.68 -833.79)"/></g><path class="cls-13" d="M1623.55,1611.51H1580c-3.64,0-5.91-3.27-4.1-5.89l.19-.27a5,5,0,0,1,4.09-2h43.58c3.52,0,5.8,3.08,4.22,5.7l-.17.27A4.88,4.88,0,0,1,1623.55,1611.51Z" transform="translate(-727.68 -833.79)"/><path class="cls-13" d="M1611.48,1628.65h-43.36c-3.64,0-5.91-3.27-4.1-5.89l4.64-6.71a5,5,0,0,1,4.09-2h42.81c3.52,0,5.81,3.09,4.22,5.71l-4.08,6.71A4.9,4.9,0,0,1,1611.48,1628.65Z" transform="translate(-727.68 -833.79)"/><path class="cls-13" d="M1633,1646.5h-77.15c-3.63,0-5.91-3.27-4.1-5.89l5.19-7.51a5,5,0,0,1,4.09-2h76.17c3.46,0,5.74,3,4.28,5.59l-4.2,7.51A4.86,4.86,0,0,1,1633,1646.5Z" transform="translate(-727.68 -833.79)"/><path class="cls-13" d="M1639.06,1665.59H1542.7c-3.63,0-5.9-3.27-4.09-5.89l5.78-8.37a5,5,0,0,1,4.1-2h95.06c3.42,0,5.7,2.93,4.31,5.52l-4.48,8.38A4.84,4.84,0,0,1,1639.06,1665.59Z" transform="translate(-727.68 -833.79)"/><path class="cls-13" d="M1594,1685.5h-65c-3.63,0-5.9-3.27-4.09-5.89l6.43-9.31a5,5,0,0,1,4.09-2h64c3.49,0,5.77,3,4.25,5.65l-5.43,9.31A4.91,4.91,0,0,1,1594,1685.5Z" transform="translate(-727.68 -833.79)"/><path class="cls-13" d="M1562.1,1709.9h-50c-3.64,0-5.91-3.27-4.1-5.89l9.4-13.61a5,5,0,0,1,4.09-2h48.87c3.52,0,5.81,3.09,4.22,5.7l-8.28,13.61A4.9,4.9,0,0,1,1562.1,1709.9Z" transform="translate(-727.68 -833.79)"/><path class="cls-13" d="M1632.83,1709.9H1582.5c-3.51,0-5.79-3.06-4.24-5.67l8.09-13.61a4.9,4.9,0,0,1,4.24-2.19h49.2c3.39,0,5.67,2.88,4.35,5.47l-7,13.61A4.82,4.82,0,0,1,1632.83,1709.9Z" transform="translate(-727.68 -833.79)"/><path class="cls-13" d="M1703.9,1709.9h-50.62c-3.37,0-5.65-2.85-4.36-5.44l6.77-13.61a4.84,4.84,0,0,1,4.37-2.42h49.49c3.25,0,5.53,2.66,4.47,5.21l-5.65,13.61A4.74,4.74,0,0,1,1703.9,1709.9Z" transform="translate(-727.68 -833.79)"/><path class="cls-13" d="M2232.91,1709.9h-68.7a4.56,4.56,0,0,1-4.66-3.29l-2.7-13.61c-.47-2.4,1.74-4.57,4.66-4.57h67.25a4.66,4.66,0,0,1,4.58,3l4.15,13.61C2238.25,1707.48,2236,1709.9,2232.91,1709.9Z" transform="translate(-727.68 -833.79)"/><path class="cls-13" d="M2303.62,1709.9h-50.94a4.67,4.67,0,0,1-4.57-2.92l-4.34-13.61c-.79-2.5,1.47-4.94,4.57-4.94h49.81a4.72,4.72,0,0,1,4.48,2.68l5.47,13.61C2309.13,1707.27,2306.85,1709.9,2303.62,1709.9Z" transform="translate(-727.68 -833.79)"/><path class="cls-13" d="M2444.91,1709.9H2394.5a4.82,4.82,0,0,1-4.35-2.39l-7-13.61c-1.33-2.59,1-5.47,4.34-5.47h49.28a4.9,4.9,0,0,1,4.24,2.19l8.09,13.61C2450.69,1706.84,2448.41,1709.9,2444.91,1709.9Z" transform="translate(-727.68 -833.79)"/><path class="cls-13" d="M2374.32,1710H2323.7a4.76,4.76,0,0,1-4.47-2.65l-1.29-3.1c-1.06-2.55,1.22-5.22,4.47-5.22h50.37a4.81,4.81,0,0,1,4.36,2.43l1.55,3.1C2380,1707.12,2377.69,1710,2374.32,1710Z" transform="translate(-727.68 -833.79)"/><path class="cls-13" d="M2515.39,1710h-50a4.9,4.9,0,0,1-4.21-2.16l-1.89-3.1c-1.59-2.62.69-5.71,4.21-5.71h49.75a5,5,0,0,1,4.09,2l2.14,3.1C2521.29,1706.7,2519,1710,2515.39,1710Z" transform="translate(-727.68 -833.79)"/><path class="cls-13" d="M1792.31,1709.9h-68.66c-3.22,0-5.5-2.63-4.48-5.18l5.47-13.61a4.74,4.74,0,0,1,4.48-2.68h67.2c3.07,0,5.32,2.39,4.59,4.86l-4,13.61A4.65,4.65,0,0,1,1792.31,1709.9Z" transform="translate(-727.68 -833.79)"/><path class="cls-13" d="M2144.83,1709.9h-333c-3,0-5.3-2.36-4.6-4.83l3.83-13.61a4.62,4.62,0,0,1,4.6-3h326.68a4.55,4.55,0,0,1,4.67,3.33l2.52,13.61C2149.94,1707.75,2147.72,1709.9,2144.83,1709.9Z" transform="translate(-727.68 -833.79)"/><path class="cls-13" d="M1674.49,1628.65h-43.71c-3.5,0-5.79-3.06-4.23-5.67l4-6.71a4.9,4.9,0,0,1,4.24-2.19h43.15c3.38,0,5.67,2.88,4.34,5.47l-3.43,6.71A4.82,4.82,0,0,1,1674.49,1628.65Z" transform="translate(-727.68 -833.79)"/><path class="cls-13" d="M1737.53,1628.65h-44c-3.36,0-5.65-2.84-4.36-5.43l3.34-6.71a4.82,4.82,0,0,1,4.37-2.43h43.44c3.25,0,5.52,2.66,4.46,5.22L1742,1626A4.75,4.75,0,0,1,1737.53,1628.65Z" transform="translate(-727.68 -833.79)"/><path class="cls-13" d="M1799.68,1628.65h-44.24c-3.23,0-5.5-2.63-4.48-5.18l2.71-6.71a4.73,4.73,0,0,1,4.48-2.68h43.68c3.1,0,5.36,2.45,4.56,4.94l-2.15,6.71A4.65,4.65,0,0,1,1799.68,1628.65Z" transform="translate(-727.68 -833.79)"/><path class="cls-13" d="M1862.66,1628.65h-44.43c-3.08,0-5.34-2.41-4.58-4.9l2.06-6.71a4.66,4.66,0,0,1,4.58-3h43.87c3,0,5.19,2.23,4.65,4.65l-1.51,6.71A4.56,4.56,0,0,1,1862.66,1628.65Z" transform="translate(-727.68 -833.79)"/><path class="cls-13" d="M1925.38,1628.65h-44.57c-2.93,0-5.16-2.2-4.65-4.61l1.41-6.71a4.57,4.57,0,0,1,4.66-3.25h44c2.81,0,5,2,4.7,4.35l-.86,6.71C1929.82,1627.14,1927.79,1628.65,1925.38,1628.65Z" transform="translate(-727.68 -833.79)"/><path class="cls-13" d="M1988.24,1628.65H1943.6c-2.78,0-5-2-4.7-4.3l.77-6.71c.23-2,2.27-3.56,4.7-3.56h44.09c2.65,0,4.79,1.83,4.72,4l-.21,6.71C1992.9,1627,1990.8,1628.65,1988.24,1628.65Z" transform="translate(-727.68 -833.79)"/><path class="cls-13" d="M2051.15,1628.65h-44.66c-2.63,0-4.76-1.79-4.72-4l.12-6.71c0-2.14,2.15-3.87,4.73-3.87h44.09c2.52,0,4.59,1.64,4.72,3.72l.44,6.71C2056,1626.76,2053.86,1628.65,2051.15,1628.65Z" transform="translate(-727.68 -833.79)"/><path class="cls-13" d="M2113.15,1628.65h-44.61c-2.49,0-4.55-1.61-4.71-3.68l-.52-6.71c-.17-2.26,2-4.18,4.72-4.18h44c2.37,0,4.37,1.46,4.68,3.41l1.07,6.72C2118.21,1626.56,2116,1628.65,2113.15,1628.65Z" transform="translate(-727.68 -833.79)"/><path class="cls-13" d="M2176,1628.65h-44.5a4.54,4.54,0,0,1-4.68-3.37l-1.16-6.71c-.41-2.37,1.8-4.49,4.68-4.49h43.95a4.62,4.62,0,0,1,4.62,3.11l1.71,6.71C2181.23,1626.35,2179,1628.65,2176,1628.65Z" transform="translate(-727.68 -833.79)"/><path class="cls-13" d="M2239.79,1628.65h-44.35a4.62,4.62,0,0,1-4.61-3.06l-1.81-6.71c-.67-2.46,1.58-4.8,4.6-4.8h43.79a4.69,4.69,0,0,1,4.53,2.82l2.38,6.71C2245.21,1626.13,2242.94,1628.65,2239.79,1628.65Z" transform="translate(-727.68 -833.79)"/><path class="cls-13" d="M2301.7,1628.65h-44.12a4.7,4.7,0,0,1-4.52-2.78l-2.46-6.71c-.92-2.53,1.35-5.08,4.52-5.08h43.57a4.78,4.78,0,0,1,4.43,2.56l3,6.71C2307.28,1625.92,2305,1628.65,2301.7,1628.65Z" transform="translate(-727.68 -833.79)"/><path class="cls-13" d="M1697.79,1646.5h-45.34c-3.44,0-5.72-3-4.3-5.56l4.1-7.5a4.83,4.83,0,0,1,4.3-2.31h44.71c3.32,0,5.6,2.77,4.41,5.35l-3.48,7.5A4.77,4.77,0,0,1,1697.79,1646.5Z" transform="translate(-727.68 -833.79)"/><path class="cls-13" d="M1762.54,1646.5h-45.61c-3.29,0-5.58-2.74-4.42-5.31l3.38-7.51a4.78,4.78,0,0,1,4.42-2.55h45c3.18,0,5.45,2.55,4.52,5.08l-2.75,7.5A4.7,4.7,0,0,1,1762.54,1646.5Z" transform="translate(-727.68 -833.79)"/><path class="cls-13" d="M1826.37,1646.5h-45.82c-3.16,0-5.43-2.53-4.53-5l2.66-7.5a4.7,4.7,0,0,1,4.53-2.82h45.2c3,0,5.28,2.34,4.61,4.8l-2,7.5A4.63,4.63,0,0,1,1826.37,1646.5Z" transform="translate(-727.68 -833.79)"/><path class="cls-13" d="M1891.05,1646.5h-46c-3,0-5.25-2.31-4.62-4.76l1.94-7.5a4.62,4.62,0,0,1,4.62-3.11h45.36c2.88,0,5.09,2.13,4.68,4.5l-1.32,7.5A4.55,4.55,0,0,1,1891.05,1646.5Z" transform="translate(-727.68 -833.79)"/><path class="cls-13" d="M1955.47,1646.5h-46.09c-2.86,0-5.06-2.1-4.68-4.46l1.22-7.5a4.53,4.53,0,0,1,4.68-3.41h45.47c2.73,0,4.89,1.92,4.71,4.19l-.6,7.51C1960,1644.89,1958,1646.5,1955.47,1646.5Z" transform="translate(-727.68 -833.79)"/><path class="cls-13" d="M2020,1646.5H1973.9c-2.71,0-4.86-1.9-4.71-4.15l.49-7.5c.14-2.09,2.21-3.72,4.72-3.72h45.51c2.59,0,4.69,1.73,4.73,3.88l.12,7.5C2024.8,1644.7,2022.67,1646.5,2020,1646.5Z" transform="translate(-727.68 -833.79)"/><path class="cls-13" d="M2084.65,1646.5h-46.12c-2.57,0-4.66-1.7-4.72-3.84l-.23-7.5c-.07-2.21,2.07-4,4.72-4h45.5c2.44,0,4.47,1.55,4.7,3.57l.85,7.5C2089.61,1644.5,2087.43,1646.5,2084.65,1646.5Z" transform="translate(-727.68 -833.79)"/><path class="cls-13" d="M2148.33,1646.5h-46c-2.41,0-4.44-1.53-4.69-3.53l-.94-7.5c-.29-2.32,1.89-4.34,4.7-4.34h45.42a4.56,4.56,0,0,1,4.65,3.26l1.56,7.51C2153.48,1644.3,2151.26,1646.5,2148.33,1646.5Z" transform="translate(-727.68 -833.79)"/><path class="cls-13" d="M2212.87,1646.5H2167a4.58,4.58,0,0,1-4.64-3.22l-1.66-7.51c-.54-2.41,1.69-4.64,4.64-4.64h45.29a4.64,4.64,0,0,1,4.58,3l2.29,7.5C2218.2,1644.08,2216,1646.5,2212.87,1646.5Z" transform="translate(-727.68 -833.79)"/><path class="cls-13" d="M2278.4,1646.5h-45.72a4.67,4.67,0,0,1-4.57-2.93l-2.39-7.5c-.8-2.49,1.46-4.94,4.56-4.94h45.1a4.73,4.73,0,0,1,4.48,2.69l3,7.5C2283.9,1643.86,2281.63,1646.5,2278.4,1646.5Z" transform="translate(-727.68 -833.79)"/><path class="cls-13" d="M2345.63,1639.58c1.89,3.8-.61,6.92-5.56,6.92h-37.92c-5,0-10.32-3.19-11.93-7.08l-.5-1.21c-1.61-3.89,1.12-7.08,6.07-7.08h36.64c5,0,10.55,3.12,12.44,6.92Z" transform="translate(-727.68 -833.79)"/><path class="cls-13" d="M2407,1646.5h-45.18a4.83,4.83,0,0,1-4.35-2.4l-3.84-7.5c-1.32-2.59,1-5.47,4.35-5.47h44.56a4.9,4.9,0,0,1,4.24,2.19l4.46,7.5C2412.79,1643.44,2410.5,1646.5,2407,1646.5Z" transform="translate(-727.68 -833.79)"/><path class="cls-13" d="M1705.56,1665.59h-47c-3.4,0-5.69-2.9-4.33-5.5l4.37-8.37a4.82,4.82,0,0,1,4.33-2.36h46.3c3.28,0,5.57,2.71,4.44,5.27L1710,1663A4.76,4.76,0,0,1,1705.56,1665.59Z" transform="translate(-727.68 -833.79)"/><path class="cls-13" d="M1772.15,1665.59H1724.9c-3.26,0-5.54-2.68-4.45-5.24L1724,1652a4.74,4.74,0,0,1,4.45-2.61H1775c3.14,0,5.41,2.49,4.54,5l-2.87,8.38A4.68,4.68,0,0,1,1772.15,1665.59Z" transform="translate(-727.68 -833.79)"/><path class="cls-13" d="M1837.79,1665.59h-47.45c-3.12,0-5.38-2.47-4.56-5l2.77-8.38a4.68,4.68,0,0,1,4.56-2.88h46.75c3,0,5.23,2.28,4.63,4.72l-2.08,8.37A4.59,4.59,0,0,1,1837.79,1665.59Z" transform="translate(-727.68 -833.79)"/><path class="cls-13" d="M1904.3,1665.59h-47.59c-3,0-5.21-2.26-4.64-4.68l2-8.38a4.6,4.6,0,0,1,4.64-3.17h46.9c2.85,0,5,2.07,4.69,4.42l-1.27,8.37C1908.69,1664.12,1906.68,1665.59,1904.3,1665.59Z" transform="translate(-727.68 -833.79)"/><path class="cls-13" d="M1970.54,1665.59h-47.68c-2.83,0-5-2-4.7-4.38l1.16-8.37c.28-2,2.3-3.48,4.7-3.48h47c2.69,0,4.84,1.87,4.72,4.11l-.47,8.37C1975.14,1663.94,1973.07,1665.59,1970.54,1665.59Z" transform="translate(-727.68 -833.79)"/><path class="cls-13" d="M2036.94,1665.59h-47.72c-2.67,0-4.81-1.84-4.72-4.07l.36-8.37c.09-2.12,2.17-3.79,4.72-3.79h47c2.55,0,4.64,1.67,4.72,3.79l.34,8.38C2041.75,1663.75,2039.61,1665.59,2036.94,1665.59Z" transform="translate(-727.68 -833.79)"/><path class="cls-13" d="M2103.38,1665.59H2055.7c-2.53,0-4.61-1.65-4.72-3.75l-.46-8.38c-.12-2.24,2-4.1,4.72-4.1h47c2.4,0,4.42,1.49,4.69,3.48l1.15,8.38C2108.4,1663.55,2106.2,1665.59,2103.38,1665.59Z" transform="translate(-727.68 -833.79)"/><path class="cls-13" d="M2168.88,1665.59h-47.61c-2.38,0-4.39-1.48-4.68-3.45l-1.25-8.37c-.35-2.35,1.85-4.41,4.69-4.41h46.9a4.58,4.58,0,0,1,4.64,3.18l1.94,8.38C2174.08,1663.34,2171.84,1665.59,2168.88,1665.59Z" transform="translate(-727.68 -833.79)"/><path class="cls-13" d="M2235.24,1665.59h-47.45a4.6,4.6,0,0,1-4.63-3.14l-2-8.38c-.6-2.43,1.64-4.71,4.63-4.71h46.76a4.66,4.66,0,0,1,4.55,2.89l2.75,8.37C2240.62,1663.13,2238.36,1665.59,2235.24,1665.59Z" transform="translate(-727.68 -833.79)"/><path class="cls-13" d="M2302.64,1665.59h-47.25a4.68,4.68,0,0,1-4.54-2.85l-2.87-8.38c-.87-2.51,1.4-5,4.54-5h46.55a4.75,4.75,0,0,1,4.45,2.61l3.57,8.38C2308.18,1662.9,2305.9,1665.59,2302.64,1665.59Z" transform="translate(-727.68 -833.79)"/><path class="cls-13" d="M2368.05,1665.59h-47a4.76,4.76,0,0,1-4.44-2.58l-3.67-8.38c-1.13-2.56,1.15-5.27,4.43-5.27h46.31a4.82,4.82,0,0,1,4.33,2.36l4.36,8.38C2373.74,1662.69,2371.45,1665.59,2368.05,1665.59Z" transform="translate(-727.68 -833.79)"/><path class="cls-13" d="M1662.49,1685.5H1614c-3.47,0-5.75-3-4.27-5.62l5.31-9.3a4.88,4.88,0,0,1,4.27-2.25H1667c3.36,0,5.64,2.82,4.38,5.41l-4.54,9.31A4.8,4.8,0,0,1,1662.49,1685.5Z" transform="translate(-727.68 -833.79)"/><path class="cls-13" d="M1731,1685.5h-48.77c-3.33,0-5.62-2.79-4.4-5.37l4.42-9.31a4.79,4.79,0,0,1,4.39-2.49h48c3.21,0,5.48,2.61,4.49,5.15l-3.64,9.31A4.75,4.75,0,0,1,1731,1685.5Z" transform="translate(-727.68 -833.79)"/><path class="cls-13" d="M1798.55,1685.5h-49c-3.19,0-5.46-2.58-4.5-5.11l3.53-9.31a4.7,4.7,0,0,1,4.5-2.75h48.23c3.07,0,5.32,2.39,4.59,4.87l-2.76,9.31A4.63,4.63,0,0,1,1798.55,1685.5Z" transform="translate(-727.68 -833.79)"/><path class="cls-13" d="M1867,1685.5h-49.18c-3,0-5.3-2.36-4.6-4.83l2.63-9.31a4.64,4.64,0,0,1,4.6-3h48.41c2.91,0,5.13,2.18,4.66,4.58l-1.86,9.3A4.56,4.56,0,0,1,1867,1685.5Z" transform="translate(-727.68 -833.79)"/><path class="cls-13" d="M1935.16,1685.5h-49.3c-2.9,0-5.11-2.15-4.67-4.53l1.74-9.31a4.55,4.55,0,0,1,4.67-3.33h48.53c2.77,0,4.94,2,4.7,4.27l-1,9.31C1939.66,1683.94,1937.61,1685.5,1935.16,1685.5Z" transform="translate(-727.68 -833.79)"/><path class="cls-13" d="M2003.49,1685.5h-49.36c-2.75,0-4.92-2-4.71-4.23l.84-9.3c.19-2,2.24-3.64,4.71-3.64h48.59c2.62,0,4.74,1.78,4.73,4l-.08,9.3C2008.2,1683.76,2006.09,1685.5,2003.49,1685.5Z" transform="translate(-727.68 -833.79)"/><path class="cls-13" d="M2071.87,1685.5h-49.36c-2.6,0-4.72-1.75-4.73-3.91l0-9.31c0-2.18,2.1-4,4.72-4H2071c2.47,0,4.53,1.59,4.71,3.64l.83,9.31C2076.78,1683.56,2074.61,1685.5,2071.87,1685.5Z" transform="translate(-727.68 -833.79)"/><path class="cls-13" d="M2139.26,1685.5H2090c-2.45,0-4.5-1.57-4.71-3.6l-.93-9.31c-.24-2.29,1.94-4.26,4.7-4.26h48.53a4.54,4.54,0,0,1,4.67,3.34l1.71,9.31C2144.37,1683.36,2142.16,1685.5,2139.26,1685.5Z" transform="translate(-727.68 -833.79)"/><path class="cls-13" d="M2207.57,1685.5h-49.19a4.55,4.55,0,0,1-4.66-3.29l-1.84-9.31c-.47-2.4,1.75-4.57,4.67-4.57H2205a4.63,4.63,0,0,1,4.6,3l2.61,9.31C2212.86,1683.14,2210.61,1685.5,2207.57,1685.5Z" transform="translate(-727.68 -833.79)"/><path class="cls-13" d="M2276.92,1685.5h-49a4.65,4.65,0,0,1-4.59-3l-2.75-9.31c-.73-2.48,1.53-4.87,4.59-4.87h48.23a4.71,4.71,0,0,1,4.51,2.75l3.52,9.31C2282.39,1682.92,2280.11,1685.5,2276.92,1685.5Z" transform="translate(-727.68 -833.79)"/><path class="cls-13" d="M2344.24,1685.5h-48.78a4.72,4.72,0,0,1-4.49-2.72l-3.64-9.31c-1-2.54,1.29-5.14,4.5-5.14h48a4.8,4.8,0,0,1,4.4,2.49l4.4,9.31C2349.85,1682.71,2347.57,1685.5,2344.24,1685.5Z" transform="translate(-727.68 -833.79)"/><path class="cls-13" d="M2498.49,1685.5H2364.65a4.8,4.8,0,0,1-4.38-2.45l-4.54-9.31c-1.26-2.59,1-5.41,4.38-5.41h131.95a5,5,0,0,1,4.09,2l6.43,9.31C2504.39,1682.23,2502.12,1685.5,2498.49,1685.5Z" transform="translate(-727.68 -833.79)"/><path class="cls-13" d="M2434.9,1665.59h-46.69a4.83,4.83,0,0,1-4.31-2.33l-4.49-8.38c-1.39-2.59.9-5.52,4.32-5.52h46a4.91,4.91,0,0,1,4.2,2.13l5.18,8.37C2440.72,1662.48,2438.43,1665.59,2434.9,1665.59Z" transform="translate(-727.68 -833.79)"/><path class="cls-13" d="M2364.46,1628.65H2320.6a4.78,4.78,0,0,1-4.41-2.52l-3.11-6.71c-1.19-2.57,1.1-5.34,4.41-5.34h43.31a4.85,4.85,0,0,1,4.3,2.31l3.66,6.71C2370.18,1625.7,2367.89,1628.65,2364.46,1628.65Z" transform="translate(-727.68 -833.79)"/><path class="cls-13" d="M2462.42,1631.26h-41.21c-3.7,0-6.2.86-5.56,1.91l7,11.47c.67,1.09,4.31,2,8.09,2h6.6a4.93,4.93,0,0,1,4.18,2.1l9.29,14.7c.73,1.15,4.51,2.1,8.4,2.1h26.56c3.89,0,6.42-1,5.62-2.1l-20.9-30.26C2469.73,1632.12,2466.12,1631.26,2462.42,1631.26Z" transform="translate(-727.68 -833.79)"/><path class="cls-13" d="M2459.18,1628.65h-74.73a4.87,4.87,0,0,1-4.29-2.27l-3.75-6.71c-1.46-2.6.82-5.59,4.28-5.59h73.85a5,5,0,0,1,4.1,2l4.64,6.71C2465.08,1625.38,2462.81,1628.65,2459.18,1628.65Z" transform="translate(-727.68 -833.79)"/><path class="cls-13" d="M1686.66,1611.51h-43.94c-3.5,0-5.78-3-4.24-5.66l.16-.28a4.9,4.9,0,0,1,4.24-2.19h43.92c3.38,0,5.67,2.86,4.36,5.45l-.14.28A4.85,4.85,0,0,1,1686.66,1611.51Z" transform="translate(-727.68 -833.79)"/><path class="cls-13" d="M1750.59,1611.51h-44.25c-3.36,0-5.64-2.83-4.37-5.41l.13-.28a4.81,4.81,0,0,1,4.37-2.44h44.23c3.23,0,5.51,2.64,4.47,5.19l-.11.27A4.73,4.73,0,0,1,1750.59,1611.51Z" transform="translate(-727.68 -833.79)"/><path class="cls-13" d="M1813.54,1611.51H1769c-3.21,0-5.48-2.61-4.49-5.15l.11-.27a4.73,4.73,0,0,1,4.49-2.71h44.47c3.08,0,5.34,2.42,4.58,4.9l-.09.28A4.64,4.64,0,0,1,1813.54,1611.51Z" transform="translate(-727.68 -833.79)"/><path class="cls-13" d="M1877.4,1611.51h-44.68c-3.06,0-5.31-2.38-4.59-4.86l.08-.27a4.63,4.63,0,0,1,4.59-3h44.66c2.93,0,5.15,2.19,4.65,4.6l0,.27A4.57,4.57,0,0,1,1877.4,1611.51Z" transform="translate(-727.68 -833.79)"/><path class="cls-13" d="M1940.4,1611.51h-44.81c-2.91,0-5.13-2.16-4.66-4.55l0-.27a4.54,4.54,0,0,1,4.66-3.31h44.79c2.77,0,5,2,4.7,4.28l0,.27C1944.88,1610,1942.84,1611.51,1940.4,1611.51Z" transform="translate(-727.68 -833.79)"/><path class="cls-13" d="M2004.2,1611.51h-44.87c-2.76,0-4.93-2-4.71-4.23l0-.27c.19-2,2.24-3.63,4.71-3.63h44.85c2.62,0,4.74,1.77,4.73,3.95v.28C2008.91,1609.77,2006.8,1611.51,2004.2,1611.51Z" transform="translate(-727.68 -833.79)"/><path class="cls-13" d="M2067,1611.51h-44.88c-2.6,0-4.71-1.75-4.72-3.91v-.27c0-2.18,2.1-3.95,4.72-3.95H2067c2.47,0,4.52,1.58,4.71,3.63l0,.27C2071.94,1609.57,2069.78,1611.51,2067,1611.51Z" transform="translate(-727.68 -833.79)"/><path class="cls-13" d="M2130.84,1611.51H2086c-2.44,0-4.49-1.55-4.7-3.58l0-.27c-.25-2.3,1.93-4.28,4.7-4.28h44.79a4.56,4.56,0,0,1,4.67,3.31l.05.27C2136,1609.35,2133.75,1611.51,2130.84,1611.51Z" transform="translate(-727.68 -833.79)"/><path class="cls-13" d="M2193.71,1611.51H2149a4.57,4.57,0,0,1-4.66-3.27l0-.27c-.5-2.4,1.73-4.59,4.65-4.59h44.66a4.65,4.65,0,0,1,4.6,3l.07.28C2199,1609.13,2196.77,1611.51,2193.71,1611.51Z" transform="translate(-727.68 -833.79)"/><path class="cls-13" d="M2257.39,1611.51h-44.5a4.64,4.64,0,0,1-4.57-3l-.09-.27c-.76-2.49,1.5-4.9,4.58-4.9h44.47a4.71,4.71,0,0,1,4.49,2.71l.11.28C2262.87,1608.91,2260.6,1611.51,2257.39,1611.51Z" transform="translate(-727.68 -833.79)"/><path class="cls-13" d="M2320.09,1611.51h-44.25a4.72,4.72,0,0,1-4.47-2.67l-.11-.28c-1-2.54,1.24-5.18,4.47-5.18H2320a4.8,4.8,0,0,1,4.37,2.45l.14.27C2325.74,1608.68,2323.45,1611.51,2320.09,1611.51Z" transform="translate(-727.68 -833.79)"/><path class="cls-13" d="M2383.64,1611.51h-43.95a4.82,4.82,0,0,1-4.36-2.41l-.14-.27c-1.31-2.59,1-5.45,4.36-5.45h43.92a4.86,4.86,0,0,1,4.24,2.2l.17.27C2389.42,1608.46,2387.13,1611.51,2383.64,1611.51Z" transform="translate(-727.68 -833.79)"/><path class="cls-13" d="M2446.29,1611.51h-43.6a4.93,4.93,0,0,1-4.23-2.16l-.16-.28c-1.58-2.61.71-5.69,4.22-5.69h43.58a5,5,0,0,1,4.1,2l.19.28C2452.19,1608.25,2449.92,1611.51,2446.29,1611.51Z" transform="translate(-727.68 -833.79)"/><path class="cls-8" d="M2440.7,961.6H1586.63c-26.86,0-48.64,21.51-48.64,48v545.58a21.33,21.33,0,0,0,21.34,21.34H2468a21.34,21.34,0,0,0,21.34-21.34V1009.64C2489.34,983.11,2467.56,961.6,2440.7,961.6Z" transform="translate(-727.68 -833.79)"/><path class="cls-7" d="M2011,973.58a11.32,11.32,0,1,0,11.32,11.32A11.32,11.32,0,0,0,2011,973.58Z" transform="translate(-727.68 -833.79)"/><path class="cls-8" d="M2011,979.85a5.05,5.05,0,1,0,5,5A5,5,0,0,0,2011,979.85Z" transform="translate(-727.68 -833.79)"/><rect class="cls-14" x="849.09" y="174.02" width="873.79" height="557.33"/><rect class="cls-15" x="850.71" y="175.65" width="870.54" height="554.08"/><rect class="cls-16" x="889.18" y="382.17" width="792.46" height="141.03" rx="58.93"/><path class="cls-3" d="M1459.89,390.66h164.4A45.39,45.39,0,0,1,1669.67,436v33.28a45.39,45.39,0,0,1-45.39,45.39h-164.4a0,0,0,0,1,0,0V390.66A0,0,0,0,1,1459.89,390.66Z"/><path class="cls-16" d="M2247.36,1251a29.88,29.88,0,1,0,42.25,0A29.91,29.91,0,0,0,2247.36,1251Zm37.66,37.66a23.38,23.38,0,1,1,0-33.06A23.41,23.41,0,0,1,2285,1288.61Z" transform="translate(-727.68 -833.79)"/><path class="cls-16" d="M2326.08,1329.67a3.65,3.65,0,0,1-5.17,0L2287,1295.79a3.66,3.66,0,1,1,5.17-5.17l33.88,33.89A3.64,3.64,0,0,1,2326.08,1329.67Z" transform="translate(-727.68 -833.79)"/><path d="M1729,1260.48v12.24h-25.56v13.22h19.12v11.89h-19.12v25.37h-15.27v-62.72Z" transform="translate(-727.68 -833.79)"/><path d="M1736.92,1284.69a21.63,21.63,0,0,1,7.91-8.93,20.59,20.59,0,0,1,11.17-3.13,19.16,19.16,0,0,1,9.24,2.15,15.81,15.81,0,0,1,6.12,5.62v-7.05h15.28v49.85h-15.28v-7.06a16.54,16.54,0,0,1-6.21,5.63,19.16,19.16,0,0,1-9.24,2.14,20.22,20.22,0,0,1-11.08-3.17,21.89,21.89,0,0,1-7.91-9,32.94,32.94,0,0,1,0-27Zm31.27,4.56a10.71,10.71,0,0,0-15.45,0q-3.18,3.26-3.18,9t3.18,9.07a10.64,10.64,0,0,0,15.45,0q3.16-3.32,3.17-9T1768.19,1289.25Z" transform="translate(-727.68 -833.79)"/><path d="M1819.7,1275.18a17.24,17.24,0,0,1,8.93-2.37V1289h-4.2q-5.72,0-8.58,2.46c-1.9,1.64-2.86,4.51-2.86,8.62v23.14h-15.27v-49.85H1813v8.31A20.24,20.24,0,0,1,1819.7,1275.18Z" transform="translate(-727.68 -833.79)"/><path d="M1914.35,1278.44q5.49,5.63,5.5,15.63v29.13h-15.19v-27.07c0-3.22-.85-5.7-2.55-7.46a10.63,10.63,0,0,0-14,0c-1.7,1.76-2.55,4.24-2.55,7.46v27.07h-15.19v-27.07c0-3.22-.85-5.7-2.54-7.46a10.64,10.64,0,0,0-14,0c-1.7,1.76-2.55,4.24-2.55,7.46v27.07H1836v-49.85h15.28v6.25a16.43,16.43,0,0,1,6.08-5,19.1,19.1,0,0,1,8.48-1.83,20.64,20.64,0,0,1,10.06,2.41,17.35,17.35,0,0,1,6.92,6.88,20.12,20.12,0,0,1,7.06-6.7,19,19,0,0,1,9.74-2.59Q1908.86,1272.81,1914.35,1278.44Z" transform="translate(-727.68 -833.79)"/><path d="M1930.43,1284.69a21.63,21.63,0,0,1,7.91-8.93,20.59,20.59,0,0,1,11.17-3.13,19.16,19.16,0,0,1,9.24,2.15,15.81,15.81,0,0,1,6.12,5.62v-7.05h15.28v49.85h-15.28v-7.06a16.54,16.54,0,0,1-6.21,5.63,19.16,19.16,0,0,1-9.24,2.14,20.22,20.22,0,0,1-11.08-3.17,21.89,21.89,0,0,1-7.91-9,32.94,32.94,0,0,1,0-27Zm31.27,4.56a10.71,10.71,0,0,0-15.45,0q-3.18,3.26-3.18,9t3.18,9.07a10.64,10.64,0,0,0,15.45,0q3.18-3.32,3.17-9T1961.7,1289.25Zm4.34-28.32-21.54,9v-10.54l21.54-10.36Z" transform="translate(-727.68 -833.79)"/><path d="M1991.36,1284.69a22,22,0,0,1,8.85-8.93,26.41,26.41,0,0,1,13-3.13q9.38,0,15.68,4.92t8.26,13.84h-16.26q-2.06-5.72-8-5.71a8,8,0,0,0-6.7,3.26q-2.51,3.25-2.5,9.33c0,4,.83,7.17,2.5,9.34a8,8,0,0,0,6.7,3.26q5.89,0,8-5.72h16.26a23.38,23.38,0,0,1-8.31,13.76q-6.35,5-15.63,5a26.51,26.51,0,0,1-13-3.12,22,22,0,0,1-8.85-8.94,30.67,30.67,0,0,1,0-27.16Z" transform="translate(-727.68 -833.79)"/><path d="M2046.4,1265.8a7.67,7.67,0,0,1-2.55-5.85,7.78,7.78,0,0,1,2.55-6,10.19,10.19,0,0,1,13,0,7.78,7.78,0,0,1,2.55,6,7.67,7.67,0,0,1-2.55,5.85,10.15,10.15,0,0,1-13,0Zm14.16,7.55v49.85h-15.28v-49.85Z" transform="translate(-727.68 -833.79)"/><path d="M2071.5,1284.69a21.63,21.63,0,0,1,7.91-8.93,20.59,20.59,0,0,1,11.17-3.13,19.16,19.16,0,0,1,9.24,2.15,15.81,15.81,0,0,1,6.12,5.62v-7.05h15.28v49.85h-15.28v-7.06a16.54,16.54,0,0,1-6.21,5.63,19.16,19.16,0,0,1-9.24,2.14,20.19,20.19,0,0,1-11.08-3.17,21.89,21.89,0,0,1-7.91-9,32.94,32.94,0,0,1,0-27Zm31.27,4.56a10.73,10.73,0,0,0-15.46,0q-3.17,3.26-3.17,9t3.17,9.07a10.65,10.65,0,0,0,15.46,0q3.17-3.32,3.17-9T2102.77,1289.25Z" transform="translate(-727.68 -833.79)"/></g></svg>