<svg xmlns="http://www.w3.org/2000/svg" viewBox="0 0 593.79 411.05"><defs><style>.cls-1{isolation:isolate;}.cls-13,.cls-17,.cls-2,.cls-25,.cls-26,.cls-5{fill:#5a5a66;}.cls-13,.cls-15,.cls-2{opacity:0.53;}.cls-12,.cls-14,.cls-16,.cls-27,.cls-3,.cls-35,.cls-36,.cls-37,.cls-38,.cls-40,.cls-47,.cls-51,.cls-55{fill:none;stroke-miterlimit:10;}.cls-3,.cls-40{stroke:#fff;}.cls-3{stroke-width:0.82px;}.cls-4{fill:#7590aa;}.cls-13,.cls-4,.cls-44,.cls-5,.cls-9{mix-blend-mode:multiply;}.cls-6{fill:#ccc;}.cls-7{fill:#33427a;}.cls-8,.cls-9{fill:#204300;opacity:0.39;}.cls-10{fill:#9595a5;}.cls-11{fill:#36363d;}.cls-12{stroke:#36363d;}.cls-12,.cls-51{stroke-width:0.98px;}.cls-14{stroke:#edb62b;stroke-width:1.37px;}.cls-16,.cls-27{stroke:#5a5a66;}.cls-16{stroke-width:1.95px;}.cls-18{fill:#060526;}.cls-19,.cls-32{fill:#fff;}.cls-20{fill:#28282d;}.cls-21{fill:#204372;}.cls-22{fill:#072847;}.cls-23{fill:#f75c38;}.cls-24{fill:#ececec;}.cls-25{opacity:0.28;}.cls-26{opacity:0.13;}.cls-27,.cls-35,.cls-36,.cls-37,.cls-40,.cls-47,.cls-51{stroke-linecap:round;}.cls-27{stroke-width:1.81px;}.cls-28,.cls-44{fill:#44444c;}.cls-29{fill:#171905;}.cls-30{fill:#000072;}.cls-31{fill:#2f2f35;}.cls-32{opacity:0.37;}.cls-32,.cls-50{mix-blend-mode:overlay;}.cls-33{fill:#d35854;}.cls-34{fill:#ef7d6e;}.cls-35,.cls-37{stroke:#99344c;}.cls-35{stroke-width:0.54px;}.cls-36{stroke:#560b0b;stroke-width:0.76px;}.cls-37,.cls-38{stroke-width:1.08px;}.cls-38{stroke:#8e8ea0;}.cls-39{fill:#b4d1ed;opacity:0.38;}.cls-40{stroke-width:8.88px;}.cls-41{fill:#841111;opacity:0.42;}.cls-42{fill:#b0322f;}.cls-42,.cls-44{opacity:0.49;}.cls-43{fill:#ba2b1c;}.cls-45{fill:#a35546;}.cls-46{fill:#844239;}.cls-47{stroke:#6d3e3b;stroke-width:0.33px;}.cls-48{fill:#571717;}.cls-49{fill:#3a1414;}.cls-50,.cls-53{fill:#fefefe;}.cls-50{opacity:0.4;}.cls-51{stroke:#571717;}.cls-52{fill:#af5858;}.cls-54{fill:#7f1c14;}.cls-55{stroke:#783d32;stroke-width:0.94px;}</style></defs><g class="cls-1"><g id="OBJECTS"><path class="cls-2" d="M204.26,171.13s-76-68.36-97.95-29.15c-7.33,15,96.86,36,96.86,36Z" transform="translate(-84.69 -44.91)"/><path class="cls-3" d="M120.27,139.81s57.48,15.22,76,26.44" transform="translate(-84.69 -44.91)"/><path class="cls-3" d="M161.93,152.24s-5.34-3.71-9.74-13.83" transform="translate(-84.69 -44.91)"/><path class="cls-4" d="M189.31,175,132,130.12c30.54,3.54,72.22,41,72.22,41l-1,6.06h-4.08C196.81,176.68,193.41,175.94,189.31,175Z" transform="translate(-84.69 -44.91)"/><path class="cls-3" d="M143.79,146.52a57.06,57.06,0,0,0-20.55,7" transform="translate(-84.69 -44.91)"/><path class="cls-5" d="M173.89,171.39c16.39,4,29.28,6.63,29.28,6.63l1.09-6.89a271.34,271.34,0,0,0-30.37-23Z" transform="translate(-84.69 -44.91)"/><path class="cls-6" d="M214.56,172.76S148.82,37.19,98.25,75.85C80.31,91.28,209.4,181.21,209.4,181.21Z" transform="translate(-84.69 -44.91)"/><path class="cls-3" d="M114.83,78.66s66.44,52.1,92.28,91.72" transform="translate(-84.69 -44.91)"/><path class="cls-3" d="M110.59,95.28s16.86-1.42,24.56.18" transform="translate(-84.69 -44.91)"/><path class="cls-3" d="M153.78,91.41s1.69,15.55,5.58,25.69" transform="translate(-84.69 -44.91)"/><path class="cls-3" d="M160.66,136.58s10-2.54,17.93-.6" transform="translate(-84.69 -44.91)"/><path class="cls-5" d="M173.89,155.27c19.74,14.95,35.51,25.94,35.51,25.94l2.3-3.77v-10.3c-5.81-11.14-20-36.87-37.81-59.2Z" transform="translate(-84.69 -44.91)"/><path class="cls-7" d="M199.79,347.37s-123.11,1-114.69-34.71,66-3.89,66-3.89-45.37-27.83-49.51-63.24,84.25,51.71,84.25,51.71-26.79-28.85-27.7-66S216.94,247.5,199.79,347.37Z" transform="translate(-84.69 -44.91)"/><path class="cls-8" d="M192.44,328.47s-95.29-103.35-71.1-70.68S192.44,328.47,192.44,328.47Z" transform="translate(-84.69 -44.91)"/><path class="cls-8" d="M102.21,313.78l85.88,15.87S113.15,326.25,102.21,313.78Z" transform="translate(-84.69 -44.91)"/><path class="cls-8" d="M171,238.85l27,66S186,249.07,171,238.85Z" transform="translate(-84.69 -44.91)"/><path class="cls-9" d="M173.89,223.9v57a111.23,111.23,0,0,0,11.91,16.38s-4.71-4.65-11.91-11.36v60.77c15.05.81,25.9.72,25.9.72C210.86,282.92,189.9,237.8,173.89,223.9Z" transform="translate(-84.69 -44.91)"/><path class="cls-10" d="M589.12,289.72a136.8,136.8,0,0,1,16.61-7.93C667.81,256,663.45,221.11,678.48,191c-33.62,8.56-51.24,57.1-80.57,70.42s-57,36.49-57,36.49-2.45,7.09-4.24,14.3c-1,.8-2.09,1.62-3.13,2.47l2.15,1.88c-1.64,8.25-1.45,14.67,5.74,7.69l1.45-1.39,3.29,2.89s40.68,6.76,63.63-11.76,55.72-20.81,55.72-20.81S629.33,282.4,589.12,289.72Z" transform="translate(-84.69 -44.91)"/><path class="cls-11" d="M553.35,302.57s28-22,57.82-33.32,49.49-56.16,49.49-56.16-25.83,44.15-50.46,52.44-56.79,31.12-56.79,31.12Z" transform="translate(-84.69 -44.91)"/><path class="cls-12" d="M665.47,293.14S585.89,290,538.4,325.27" transform="translate(-84.69 -44.91)"/><path class="cls-13" d="M547.2,325.87a123.62,123.62,0,0,0,31.92,0V271.21a319.73,319.73,0,0,0-31.92,21.63Z" transform="translate(-84.69 -44.91)"/><path class="cls-7" d="M557.79,170.76s9.45,37.2,45.8,22.59c-18.53-7.78-19.14-18.93-19.14-18.93s18.9,24.91,41.91,7.11C607,174,604,165.07,604,165.07s20.4,2.61,26.68,7.74,10.26-13.92,10.26-13.92-32.4-1.07-35-5.73,37.93-3,37.93-3l1.31-9.52s-29.61,5-19.85-1S641.88,135,641.88,135l-3.35-15.21-22.36-11s-12.91,24.82-18.07,25.66,11.53-28.88,11.53-28.88L595,107.75s-5.85,24.23-9.65,25.07,2.32-22.58,2.32-22.58-10.58,3.59-14,22.91c-3.8.84-8.21-10.83-3.63-18.74C548.65,139.82,549.3,160.48,557.79,170.76Z" transform="translate(-84.69 -44.91)"/><path class="cls-2" d="M625.26,130.15S578,144.82,561,168.3C589.75,148.56,625.26,130.15,625.26,130.15Z" transform="translate(-84.69 -44.91)"/><path class="cls-2" d="M579.12,118.09a40.83,40.83,0,0,0-5.5,15.06c-3.8.84-8.21-10.83-3.63-18.74-21.34,25.41-20.69,46.07-12.2,56.35,0,0,4.92,19.38,21.33,24.67Z" transform="translate(-84.69 -44.91)"/><path class="cls-14" d="M534.07,283.49s14.26-26.76,41-39.75,53.32-34.29,70.55-65" transform="translate(-84.69 -44.91)"/><path class="cls-7" d="M562.66,250.69a10.43,10.43,0,0,1-.52-12.36C566.29,241.92,564.72,246.54,562.66,250.69Z" transform="translate(-84.69 -44.91)"/><path class="cls-7" d="M562.66,250.69a10.43,10.43,0,0,0,11.42,4.74C572.13,250.3,567.26,250.18,562.66,250.69Z" transform="translate(-84.69 -44.91)"/><path class="cls-7" d="M577,242.8a10.44,10.44,0,0,1-.51-12.36C580.66,234,579.1,238.65,577,242.8Z" transform="translate(-84.69 -44.91)"/><path class="cls-7" d="M577,242.8a10.44,10.44,0,0,0,11.43,4.74C586.51,242.41,581.64,242.29,577,242.8Z" transform="translate(-84.69 -44.91)"/><path class="cls-7" d="M589.64,235.12a10.43,10.43,0,0,1,1.3-12.3C594.51,227,592.29,231.32,589.64,235.12Z" transform="translate(-84.69 -44.91)"/><path class="cls-7" d="M589.64,235.12a10.43,10.43,0,0,0,10.61,6.35C599.07,236.12,594.27,235.28,589.64,235.12Z" transform="translate(-84.69 -44.91)"/><path class="cls-7" d="M602.38,226.69a10.43,10.43,0,0,1,1.3-12.3C607.25,218.55,605,222.89,602.38,226.69Z" transform="translate(-84.69 -44.91)"/><path class="cls-7" d="M602.38,226.69A10.44,10.44,0,0,0,613,233.05C611.82,227.69,607,226.86,602.38,226.69Z" transform="translate(-84.69 -44.91)"/><path class="cls-7" d="M613.57,217.21a10.45,10.45,0,0,1-3.48-11.87C615,207.83,614.58,212.69,613.57,217.21Z" transform="translate(-84.69 -44.91)"/><path class="cls-7" d="M613.57,217.21a10.45,10.45,0,0,0,12.24,1.84C622.68,214.54,617.92,215.6,613.57,217.21Z" transform="translate(-84.69 -44.91)"/><path class="cls-7" d="M625.38,207.26a10.45,10.45,0,0,1-3.48-11.87C626.79,197.88,626.39,202.73,625.38,207.26Z" transform="translate(-84.69 -44.91)"/><path class="cls-7" d="M625.38,207.26a10.43,10.43,0,0,0,12.23,1.83C634.49,204.59,629.73,205.65,625.38,207.26Z" transform="translate(-84.69 -44.91)"/><path class="cls-7" d="M635,193.66a10.45,10.45,0,0,1-3.88-11.75C636.12,184.24,635.88,189.11,635,193.66Z" transform="translate(-84.69 -44.91)"/><path class="cls-7" d="M635,193.66a10.42,10.42,0,0,0,12.28,1.43C644,190.69,639.32,191.91,635,193.66Z" transform="translate(-84.69 -44.91)"/><path class="cls-7" d="M643.82,181.38a10.45,10.45,0,0,0,6.7-10.4C645.12,172,644.13,176.76,643.82,181.38Z" transform="translate(-84.69 -44.91)"/><g class="cls-15"><path class="cls-16" d="M243.44,228.28s-23.26-19.45-52.89-21.46-62.29-11.76-89.78-33.71" transform="translate(-84.69 -44.91)"/><path class="cls-17" d="M204.64,208.62A10.45,10.45,0,0,0,200.47,197C198,201.85,201.16,205.55,204.64,208.62Z" transform="translate(-84.69 -44.91)"/><path class="cls-17" d="M204.64,208.62a10.45,10.45,0,0,1-8.82,8.68C195.7,211.81,200.17,209.87,204.64,208.62Z" transform="translate(-84.69 -44.91)"/><path class="cls-17" d="M188.35,206.7a10.44,10.44,0,0,0-4.16-11.65C181.69,199.94,184.88,203.63,188.35,206.7Z" transform="translate(-84.69 -44.91)"/><path class="cls-17" d="M188.35,206.7a10.43,10.43,0,0,1-8.81,8.68C179.42,209.9,183.89,208,188.35,206.7Z" transform="translate(-84.69 -44.91)"/><path class="cls-17" d="M173.78,204.31A10.44,10.44,0,0,0,168,193.4C166.21,198.6,169.9,201.79,173.78,204.31Z" transform="translate(-84.69 -44.91)"/><path class="cls-17" d="M173.78,204.31a10.44,10.44,0,0,1-7.45,9.88C165.41,208.78,169.55,206.21,173.78,204.31Z" transform="translate(-84.69 -44.91)"/><path class="cls-17" d="M158.8,201.29A10.42,10.42,0,0,0,153,190.38C151.23,195.57,154.92,198.76,158.8,201.29Z" transform="translate(-84.69 -44.91)"/><path class="cls-17" d="M158.8,201.29a10.43,10.43,0,0,1-7.44,9.87C150.43,205.76,154.58,203.18,158.8,201.29Z" transform="translate(-84.69 -44.91)"/><path class="cls-17" d="M144.87,196.7a10.44,10.44,0,0,0-1.23-12.31C140,188.53,142.24,192.89,144.87,196.7Z" transform="translate(-84.69 -44.91)"/><path class="cls-17" d="M144.87,196.7a10.44,10.44,0,0,1-10.65,6.3C135.43,197.65,140.24,196.84,144.87,196.7Z" transform="translate(-84.69 -44.91)"/><path class="cls-17" d="M130.19,191.91a10.43,10.43,0,0,0-1.23-12.3C125.36,183.74,127.56,188.1,130.19,191.91Z" transform="translate(-84.69 -44.91)"/><path class="cls-17" d="M130.19,191.91a10.44,10.44,0,0,1-10.65,6.3C120.75,192.86,125.56,192.05,130.19,191.91Z" transform="translate(-84.69 -44.91)"/><path class="cls-17" d="M116.15,182.93a10.45,10.45,0,0,0-.82-12.34C111.59,174.61,113.65,179,116.15,182.93Z" transform="translate(-84.69 -44.91)"/><path class="cls-17" d="M116.15,182.93a10.43,10.43,0,0,1-10.85,5.94C106.68,183.56,111.51,182.92,116.15,182.93Z" transform="translate(-84.69 -44.91)"/><path class="cls-17" d="M103.39,174.85a10.44,10.44,0,0,1-10.11-7.12C98.65,166.63,101.36,170.68,103.39,174.85Z" transform="translate(-84.69 -44.91)"/></g><path class="cls-18" d="M576.09,411.17c0,2-88.14,3.58-196.87,3.58s-196.88-1.6-196.88-3.58,88.14-3.57,196.88-3.57S576.09,409.2,576.09,411.17Z" transform="translate(-84.69 -44.91)"/><path class="cls-11" d="M568.82,313H182.34V88.68a18.8,18.8,0,0,1,18.79-18.8H550a18.8,18.8,0,0,1,18.79,18.8Z" transform="translate(-84.69 -44.91)"/><rect class="cls-19" x="117.39" y="44.71" width="347" height="205.71"/><path class="cls-19" d="M550.25,359.75H200.91a18.57,18.57,0,0,1-18.57-18.57V313H568.82v28.19A18.57,18.57,0,0,1,550.25,359.75Z" transform="translate(-84.69 -44.91)"/><rect class="cls-19" x="248.29" y="292.01" width="85.19" height="63.38"/><circle class="cls-2" cx="374.54" cy="336.37" r="12.99" transform="translate(-211.69 334.8) rotate(-46.87)"/><rect class="cls-19" x="227.51" y="355.38" width="128.83" height="10.39"/><rect class="cls-20" x="248.29" y="314.83" width="85.19" height="13.14"/><rect class="cls-2" x="248.29" y="350.69" width="85.19" height="4.7"/><rect class="cls-21" x="123.33" y="53.07" width="334.89" height="14.78" rx="7.32"/><path class="cls-22" d="M221.54,105.42a4,4,0,1,1-4-4A4,4,0,0,1,221.54,105.42Z" transform="translate(-84.69 -44.91)"/><path class="cls-22" d="M233.7,105.42a4,4,0,1,1-4-4A4,4,0,0,1,233.7,105.42Z" transform="translate(-84.69 -44.91)"/><path class="cls-23" d="M245.86,105.42a4,4,0,1,1-4-4A4,4,0,0,1,245.86,105.42Z" transform="translate(-84.69 -44.91)"/><rect class="cls-24" x="123.33" y="74.92" width="334.89" height="169.63" rx="11.08"/><path class="cls-25" d="M524.21,154.77a13.78,13.78,0,0,1-13.79,13.79H247.48a13.78,13.78,0,0,1-13.78-13.79h0A13.78,13.78,0,0,1,247.48,141H510.42a13.78,13.78,0,0,1,13.79,13.78Z" transform="translate(-84.69 -44.91)"/><path class="cls-19" d="M277.52,141h-30a13.79,13.79,0,0,0,0,27.57h30Z" transform="translate(-84.69 -44.91)"/><path class="cls-26" d="M495.56,194.72a9,9,0,0,1-9,9H265.89a9,9,0,0,1-9-9h0a9,9,0,0,1,9-9H486.53a9,9,0,0,1,9,9Z" transform="translate(-84.69 -44.91)"/><path class="cls-26" d="M495.56,226.36a9,9,0,0,1-9,9H265.89a9,9,0,0,1-9-9h0a9,9,0,0,1,9-9H486.53a9,9,0,0,1,9,9Z" transform="translate(-84.69 -44.91)"/><rect class="cls-26" x="153.15" y="205.47" width="58.3" height="25.36" rx="4.17"/><rect class="cls-26" x="225.06" y="205.47" width="58.3" height="25.36" rx="4.17"/><rect class="cls-26" x="296.96" y="205.47" width="58.3" height="25.36" rx="4.17"/><rect class="cls-26" x="368.87" y="205.47" width="58.3" height="25.36" rx="4.17"/><line class="cls-27" x1="198.95" y1="149.8" x2="387.32" y2="149.8"/><line class="cls-27" x1="198.95" y1="181.45" x2="387.32" y2="181.45"/><path class="cls-18" d="M563.87,450.66c0,2.93-43.41,5.3-96.95,5.3S370,453.59,370,450.66s43.4-5.31,96.95-5.31S563.87,447.73,563.87,450.66Z" transform="translate(-84.69 -44.91)"/><path class="cls-28" d="M489.52,286.39l-.48,9.09L437.84,353a37.19,37.19,0,0,0-8.54,16.69l-15.75,71.11h42.61l12-70.05,36.77-53.77,4.33-28.86Z" transform="translate(-84.69 -44.91)"/><path class="cls-29" d="M464.26,393.5l3.9-22.79,31.58-46.19,1.95-9.21S463.06,361,460.11,368.12,464.26,393.5,464.26,393.5Z" transform="translate(-84.69 -44.91)"/><path class="cls-17" d="M536.43,294.77s2.16,24.62-12.24,50.28S504,378,504,378l27.39,62.76H485.18l-18-53.62A28.82,28.82,0,0,1,470.54,362l31.15-46.66s-.57-10.32,0-23C505,279.72,521,288.08,521,288.08Z" transform="translate(-84.69 -44.91)"/><path class="cls-30" d="M531.43,440.76l5,9.19H473s1.05-9.19,12.15-9.19Z" transform="translate(-84.69 -44.91)"/><path class="cls-30" d="M456.16,440.76,453.29,450H397.87s2.34-9.19,15.68-9.19Z" transform="translate(-84.69 -44.91)"/><path class="cls-31" d="M429.3,369.65l-2.77,12.52h.18a18.91,18.91,0,0,0,13.63-32l-2.5,2.81A37.19,37.19,0,0,0,429.3,369.65Z" transform="translate(-84.69 -44.91)"/><path class="cls-31" d="M467.19,387.14l1.11,3.31.5,0A15.5,15.5,0,0,0,472,359.8L470.54,362A28.82,28.82,0,0,0,467.19,387.14Z" transform="translate(-84.69 -44.91)"/><path class="cls-19" d="M436.08,442.11a1.34,1.34,0,0,1-1.35,1.35H414.9a1.35,1.35,0,0,1-1.35-1.35h0a1.35,1.35,0,0,1,1.35-1.35h19.83a1.34,1.34,0,0,1,1.35,1.35Z" transform="translate(-84.69 -44.91)"/><path class="cls-19" d="M511.24,442.11a1.34,1.34,0,0,1-1.35,1.35H486.53a1.35,1.35,0,0,1-1.35-1.35h0a1.35,1.35,0,0,1,1.35-1.35h23.36a1.34,1.34,0,0,1,1.35,1.35Z" transform="translate(-84.69 -44.91)"/><path class="cls-28" d="M504,378s5.76-7.29,20.15-32.95,12.24-50.28,12.24-50.28l-7.83-3.41c.51,6.44.33,21.6-9.51,39.09-8.3,14.77-18,30.4-23.94,39.85a19.92,19.92,0,0,0-1.45,18.52l22.37,51.94h15.36Z" transform="translate(-84.69 -44.91)"/><path class="cls-23" d="M519,171.31s-.15-9,2.82-11.32.68,1.49,1.49,3,2.7-4.6,8.78-2.71,5.82,3.47,3.65,4.78-.4,1.31,2.71,4,1.35,17.71-7,21.63l-2.57-3.25-4.67-17.16Z" transform="translate(-84.69 -44.91)"/><path class="cls-32" d="M532.1,160.26c-6.08-1.89-8,4.19-8.78,2.71s1.48-5.27-1.49-3S519,171.31,519,171.31l5.18-1,1.2,4.4,7.35-2s-3.32-7.34-.5-8.65a10,10,0,0,1,4.89-.49C537.3,162.57,536,161.48,532.1,160.26Z" transform="translate(-84.69 -44.91)"/><path class="cls-33" d="M501.69,198a37.81,37.81,0,0,0-13.52,8.38c-5.95,5.95-34.88,35.53-34.88,35.53l11,11.75L496,232Z" transform="translate(-84.69 -44.91)"/><path class="cls-30" d="M488.74,238.12,496,232,501.69,198a37.81,37.81,0,0,0-13.52,8.38c-2,2-6.58,6.65-11.79,12C480.54,223.75,486.61,232.25,488.74,238.12Z" transform="translate(-84.69 -44.91)"/><path class="cls-19" d="M488.74,238.12l5.24-4.38c-2.59-7.48-9.74-16.27-13-20.07l-4.57,4.65C480.54,223.75,486.61,232.25,488.74,238.12Z" transform="translate(-84.69 -44.91)"/><path class="cls-29" d="M536.33,304.25a67.55,67.55,0,0,0,.1-9.48l-8.86-3.85-38.05-4.53S508.76,304.76,536.33,304.25Z" transform="translate(-84.69 -44.91)"/><path class="cls-21" d="M529.44,196.84S555,215.55,556.3,222.31C539,278,536.43,294.77,536.43,294.77s-29.6,4.32-46.91-8.38c1.89-59.21,5.41-78.41,12.17-88.41l20.51-2Z" transform="translate(-84.69 -44.91)"/><path class="cls-19" d="M529.44,196.84,522.2,196l-5.32.52-.22,2.35a8.91,8.91,0,0,0,8.87,9.71h.19a8.9,8.9,0,0,0,8.83-7.84C531.53,198.38,529.44,196.84,529.44,196.84Z" transform="translate(-84.69 -44.91)"/><path class="cls-34" d="M532.24,186.23v11.82a6.55,6.55,0,0,1-6.55,6.55h-.14a6.54,6.54,0,0,1-6.52-7.14l.67-7.32,9-9.06Z" transform="translate(-84.69 -44.91)"/><path class="cls-29" d="M530.68,185.54l-9.07,2.68-1.91,1.92-.61,6.7A13.83,13.83,0,0,0,530.68,185.54Z" transform="translate(-84.69 -44.91)"/><path class="cls-34" d="M532.69,181.22l2-5.41s-3.6-8.29-11-7.75c-3.79.18-6.49,5.41-8.47,12.08s-2.53,12.43,1.8,12.43,12.14.07,14.42-7A21.71,21.71,0,0,0,532.69,181.22Z" transform="translate(-84.69 -44.91)"/><path class="cls-34" d="M538.46,184.29a4,4,0,1,1-4-4A4,4,0,0,1,538.46,184.29Z" transform="translate(-84.69 -44.91)"/><path class="cls-32" d="M523.68,168.06c-3.79.18-6.49,5.41-8.47,12.08s-2.53,12.43,1.8,12.43c.69,0,1.48,0,2.32,0a17.74,17.74,0,0,1,4-4.82c5.48-4.67,8.28-11.54,9.42-15C531,170.4,528,167.75,523.68,168.06Z" transform="translate(-84.69 -44.91)"/><line class="cls-35" x1="446.74" y1="140.63" x2="450.64" y2="138.94"/><path class="cls-36" d="M523.32,177.84s3.24,0,4.19,1.48" transform="translate(-84.69 -44.91)"/><path class="cls-36" d="M518.86,176.21s-.06-.51-1.92-1" transform="translate(-84.69 -44.91)"/><polyline class="cls-35" points="435.38 132.92 433.21 135.39 435.38 136.17"/><path class="cls-19" d="M516.94,183.38l6.38,2.16S518.21,188.09,516.94,183.38Z" transform="translate(-84.69 -44.91)"/><path class="cls-37" d="M525.83,173.74a4.59,4.59,0,0,1,4.16,3.31" transform="translate(-84.69 -44.91)"/><path class="cls-37" d="M521,172.29a3.74,3.74,0,0,0-2.64,0" transform="translate(-84.69 -44.91)"/><path class="cls-38" d="M527.76,303.8a92.57,92.57,0,0,1-11.13,31C505.24,354,495.15,370.3,495.15,370.3s-6.16,4.17,0,20.17,20.92,50.29,20.92,50.29" transform="translate(-84.69 -44.91)"/><path class="cls-38" d="M527.76,303.8" transform="translate(-84.69 -44.91)"/><path class="cls-38" d="M528.75,295.48" transform="translate(-84.69 -44.91)"/><path class="cls-30" d="M507.1,208.56s.27,19,13,31.91,0,11.37-6.74,1.05S502.45,204,507.1,208.56Z" transform="translate(-84.69 -44.91)"/><polygon class="cls-29" points="449.78 190.91 444.76 217.5 449.98 218.49 449.78 190.91"/><path class="cls-29" d="M489.52,276.65s35.36,11.64,47.84,13.43l.85-3.81Z" transform="translate(-84.69 -44.91)"/><circle class="cls-39" cx="377.67" cy="121.57" r="70.07" transform="translate(-60.04 257.74) rotate(-45)"/><rect class="cls-31" x="426.23" y="170.47" width="22.9" height="49.74" transform="translate(-109.39 276.62) rotate(-39.32)"/><path class="cls-17" d="M328.56,62.39A77.19,77.19,0,1,0,437.19,73.2,77.18,77.18,0,0,0,328.56,62.39Zm91,111.07a66.52,66.52,0,1,1,9.32-93.6A66.51,66.51,0,0,1,419.53,173.46Z" transform="translate(-84.69 -44.91)"/><path class="cls-40" d="M343.08,81.6a51.6,51.6,0,0,1,84.27,38.8" transform="translate(-84.69 -44.91)"/><path class="cls-23" d="M520.39,295.48l-.27.22a17.55,17.55,0,0,1-24.7-2.46l-61.31-74.86a17.54,17.54,0,0,1,2.46-24.69l.28-.23a17.54,17.54,0,0,1,24.69,2.46l61.31,74.86A17.55,17.55,0,0,1,520.39,295.48Z" transform="translate(-84.69 -44.91)"/><path class="cls-41" d="M509.14,282l-61.31-74.86a17.51,17.51,0,0,1-2.8-17.4,17.43,17.43,0,0,0-8.18,3.71l-.28.23a17.54,17.54,0,0,0-2.46,24.69l61.31,74.86a17.55,17.55,0,0,0,24.7,2.46l.27-.22a17.52,17.52,0,0,0,5.26-7.3A17.52,17.52,0,0,1,509.14,282Z" transform="translate(-84.69 -44.91)"/><path class="cls-19" d="M448.92,122A71.92,71.92,0,1,0,377,193.89,71.92,71.92,0,0,0,448.92,122Zm-29.39,51.49a66.52,66.52,0,1,1,9.32-93.6A66.51,66.51,0,0,1,419.53,173.46Z" transform="translate(-84.69 -44.91)"/><path class="cls-34" d="M556.3,222.31a146.25,146.25,0,0,1,1.62,19.58c.17,7.44.13,24.76.07,36.5a9.74,9.74,0,0,1-11.62,9.5l-56.85-11.24-10.2,3.56a11,11,0,0,1-11.75-2.92l-5.35-5.77-2.2.77a2.89,2.89,0,0,1-3.54-1.43l0,0a2.88,2.88,0,0,1,1.26-3.85l18-9.24a25.84,25.84,0,0,1,16.62-2.4l42.37,8.07-.2-27.57s.2-14.06,12.37-16.22C554.07,218.36,556.3,222.31,556.3,222.31Z" transform="translate(-84.69 -44.91)"/><path class="cls-32" d="M534.67,263.35v0l-42.37-8.07a25.84,25.84,0,0,0-16.62,2.4l-2.1,1.08c1.38-.35,5.91-.35,20.4,4.59,19.8,6.76,45.54,14.79,52.31,10.92s0-9,0-9Z" transform="translate(-84.69 -44.91)"/><path class="cls-30" d="M558,251.91c0-4,0-7.57-.11-10a146.25,146.25,0,0,0-1.62-19.58s-2.23-3.95-9.46-2.7c-12.17,2.16-12.37,16.22-12.37,16.22l.12,16.33C540.36,250.7,550,249.13,558,251.91Z" transform="translate(-84.69 -44.91)"/><path class="cls-19" d="M534.55,246.31l0,5.85c5.77-1.46,15.36-3,23.44-.25,0-2.15,0-4.15,0-5.92C549.64,244.6,540.21,245.49,534.55,246.31Z" transform="translate(-84.69 -44.91)"/><line class="cls-35" x1="449.98" y1="218.49" x2="461.6" y2="220.38"/><path class="cls-42" d="M554.35,276.11a12,12,0,0,0-12,11l4,.79a9.74,9.74,0,0,0,11.62-9.5c0-.55,0-1.13,0-1.71A11.91,11.91,0,0,0,554.35,276.11Z" transform="translate(-84.69 -44.91)"/><path class="cls-29" d="M486.29,282.09s3.59-2,12.71,0,27.48,3.27,27.48,3.27l.22-1.36c-37-7.48-37.18-7.35-37.18-7.35l-6,2.09Z" transform="translate(-84.69 -44.91)"/><path class="cls-29" d="M456.16,231.37s2.85.7,2.85,3.07c3.36,1.37,4.2,4.12,3.66,6,3.36,1.91,3.87,6.14-1.73,10.67l-1.6-1.95Z" transform="translate(-84.69 -44.91)"/><path class="cls-34" d="M449.59,242.05a2.84,2.84,0,0,1-4-.37h0a2.83,2.83,0,0,1,.38-4l7.17-5.94a2.83,2.83,0,0,1,4,.38h0a2.83,2.83,0,0,1-.38,4Z" transform="translate(-84.69 -44.91)"/><path class="cls-34" d="M452.16,248.2a3.27,3.27,0,0,1-4.6-.43h0a3.27,3.27,0,0,1,.43-4.6l8.28-6.86a3.27,3.27,0,0,1,4.6.43h0a3.27,3.27,0,0,1-.43,4.6Z" transform="translate(-84.69 -44.91)"/><path class="cls-34" d="M456.27,251.73a2.67,2.67,0,0,1-3.76-.35h0a2.67,2.67,0,0,1,.36-3.76l6.76-5.61a2.68,2.68,0,0,1,3.77.36h0a2.67,2.67,0,0,1-.36,3.76Z" transform="translate(-84.69 -44.91)"/><path class="cls-18" d="M364,450.21c0,3.18-41.34,5.75-92.34,5.75s-92.34-2.57-92.34-5.75,41.35-5.75,92.34-5.75S364,447,364,450.21Z" transform="translate(-84.69 -44.91)"/><path class="cls-43" d="M300.28,399.14H230.7a5.48,5.48,0,0,1-5.48-5.48v-.11a5.48,5.48,0,0,1,5.48-5.48h69.58Z" transform="translate(-84.69 -44.91)"/><path class="cls-43" d="M286.31,423.93H213.79a5.49,5.49,0,0,1-5.48-5.48v-.12a5.49,5.49,0,0,1,5.48-5.48h72.52Z" transform="translate(-84.69 -44.91)"/><polygon class="cls-43" points="189.74 404.51 171.07 404.51 222.73 329.26 241.39 329.26 189.74 404.51"/><path class="cls-28" d="M281.07,216.47v14L316.7,272.7a25.41,25.41,0,0,1,5.59,20.9l-9.71,53.9H275.47l14.18-62.18-26.46-25.64-.91-42.43Z" transform="translate(-84.69 -44.91)"/><polygon class="cls-17" points="184.28 173.24 177.2 332.28 142.28 332.28 154.36 173.24 184.28 173.24"/><path class="cls-17" d="M313.72,269.17a13.74,13.74,0,0,0,5.47,26.34,14.47,14.47,0,0,0,2.81-.28l.29-1.63a25.41,25.41,0,0,0-5.59-20.9Z" transform="translate(-84.69 -44.91)"/><path class="cls-28" d="M265.29,300.78a13.46,13.46,0,1,0-1.11,24.91Z" transform="translate(-84.69 -44.91)"/><polygon class="cls-28" points="142.28 332.28 152.51 332.28 161.54 174.78 160.52 173.24 154.36 173.24 142.28 332.28"/><polygon class="cls-44" points="143.55 315.46 142.28 332.28 177.2 332.28 177.95 315.46 143.55 315.46"/><polygon class="cls-44" points="195.03 283.95 190.78 302.58 227.89 302.58 231.25 283.95 195.03 283.95"/><line class="cls-38" x1="161.54" y1="174.78" x2="152.51" y2="332.28"/><polygon class="cls-44" points="183.83 183.56 182.27 218.42 190.78 226.67 183.83 183.56"/><path class="cls-21" d="M275.47,347.5l-2.83,10,46.68-.12s1.56-6.83-6.74-9.84Z" transform="translate(-84.69 -44.91)"/><path class="cls-21" d="M227,377.2l-1.06,10.87H269s.56-9.16-7.08-10.87Z" transform="translate(-84.69 -44.91)"/><path class="cls-17" d="M260.16,380.33a1,1,0,0,1-1.05,1.05H244.23a1,1,0,0,1-1-1.05h0a1,1,0,0,1,1-1h14.88a1,1,0,0,1,1.05,1Z" transform="translate(-84.69 -44.91)"/><path class="cls-17" d="M311.19,350.19a1,1,0,0,1-1.05,1H295.26a1,1,0,0,1-1-1h0a1,1,0,0,1,1-1.05h14.88a1,1,0,0,1,1.05,1.05Z" transform="translate(-84.69 -44.91)"/><rect class="cls-23" x="162.37" y="312.54" width="89.12" height="16.72" rx="8.28"/><polygon class="cls-43" points="140.78 404.51 122.12 404.51 173.77 329.26 192.43 329.26 140.78 404.51"/><rect class="cls-23" x="225.41" y="329.26" width="15.77" height="75.25"/><rect class="cls-23" x="183.45" y="329.26" width="15.77" height="75.25"/><path class="cls-29" d="M262.3,218.15H239.05l-.7,9.21c20-1.76,42.72-10.89,42.72-10.89l-18.79.78Z" transform="translate(-84.69 -44.91)"/><path class="cls-45" d="M268.79,144.46a28,28,0,0,1,18,4.88c8.88,6.1,24.65,16.06,24.65,16.06L325.36,140A10.48,10.48,0,0,1,332,135.1l14.15-3.71a2,2,0,0,1,2.45,1.18h0a1.93,1.93,0,0,1-1.56,2.2l-3.77,1s1.45,8.21-1.12,10.33a38.8,38.8,0,0,1-6.57,4L322.64,175c-2.53,5.7-10.52,8.2-16,5l-26.14-15Z" transform="translate(-84.69 -44.91)"/><path class="cls-46" d="M307.87,180.58a10,10,0,0,1,6.53-5.09,10.13,10.13,0,0,1,7.48.82A12,12,0,0,1,307.87,180.58Z" transform="translate(-84.69 -44.91)"/><line class="cls-47" x1="226.75" y1="120.49" x2="223.78" y2="125.23"/><path class="cls-21" d="M281.07,216.47l-2.15-33.08,2.87-4.31a13.39,13.39,0,0,0,1.56-11.68l-10.2-23.05-9.1-2.66L247,147l-8.18,72.81A269.53,269.53,0,0,0,281.07,216.47Z" transform="translate(-84.69 -44.91)"/><path class="cls-48" d="M275.53,139c-.69-4.26-1.36-8.29-1.66-9.64-.43-1.94.94-4.6,2.11-6.43a9.46,9.46,0,0,0,1.46-5.77c-.25-3.8-1.32-9.45-5.33-11.45-6.25-3.11-16.76-3.09-21.94,7.57-2.86,5.89-3.28,17-3.09,25.72Z" transform="translate(-84.69 -44.91)"/><path class="cls-45" d="M258.52,125.87l-1,26.28,1.77-.06c.42.37,9.08-.39,9-1l-.7-15.79-.63-4Z" transform="translate(-84.69 -44.91)"/><path class="cls-49" d="M267.86,140.91l-.25-5.6-9.09-9.44S262.64,137.91,267.86,140.91Z" transform="translate(-84.69 -44.91)"/><path class="cls-45" d="M272,108.43s4.46,3.62,4.36,11.61-2.6,15.88-6.78,15.69-12-5.76-12.07-15.32c3.07-3.25,7.25-4.36,9.43-5.76S272,108.43,272,108.43Z" transform="translate(-84.69 -44.91)"/><path class="cls-50" d="M272,108.43s-2.88,4.83-5.06,6.22c-1.59,1-4.26,1.89-6.77,3.56.92,7.64,2.83,15.21,6.77,16.86.21.09.42.16.63.24a7.38,7.38,0,0,0,2,.42c4.18.19,6.69-7.71,6.78-15.69S272,108.43,272,108.43Z" transform="translate(-84.69 -44.91)"/><path class="cls-51" d="M269,121.34s-1.85-1.21-4.92,0" transform="translate(-84.69 -44.91)"/><path class="cls-51" d="M274.55,121.07c-.07-.07.63-.36,1.85-.27" transform="translate(-84.69 -44.91)"/><path class="cls-51" d="M269,117.07a5.38,5.38,0,0,0-5.29,0" transform="translate(-84.69 -44.91)"/><path class="cls-51" d="M273.62,116.37A4.25,4.25,0,0,1,276,116" transform="translate(-84.69 -44.91)"/><path class="cls-52" d="M271.3,126.07h1.85S272.5,127.1,271.3,126.07Z" transform="translate(-84.69 -44.91)"/><path class="cls-53" d="M273.62,128.4h-7.11S271.67,132.57,273.62,128.4Z" transform="translate(-84.69 -44.91)"/><path class="cls-45" d="M259.32,124.78a3.72,3.72,0,1,1-3.72-3.71A3.71,3.71,0,0,1,259.32,124.78Z" transform="translate(-84.69 -44.91)"/><path class="cls-53" d="M257.66,127.93a1.4,1.4,0,1,1-1.4-1.4A1.4,1.4,0,0,1,257.66,127.93Z" transform="translate(-84.69 -44.91)"/><path class="cls-45" d="M247,147l-4.61,41-.09.8c19.81-11.24,6.26-42.32,6.26-42.32h0Z" transform="translate(-84.69 -44.91)"/><path class="cls-45" d="M252.28,145.38c1,3.55,5,15.18,14,15.18,7.13,0,5.41-10.33,3.48-17.18l-5.76-1.69Z" transform="translate(-84.69 -44.91)"/><path class="cls-30" d="M278.92,183.39s-11.09,11.82-22.66,13.47-13.29,7.69-1.4,5.7,25.46,2.36,25.46,2.36Z" transform="translate(-84.69 -44.91)"/><rect class="cls-54" x="225.41" y="329.26" width="15.77" height="7.06"/><rect class="cls-54" x="183.45" y="329.26" width="15.77" height="7.06"/><path class="cls-46" d="M207.51,136.21,200.43,120a2.26,2.26,0,0,0-2.58-1.3h0a2.26,2.26,0,0,0-1.64,2.89l2.46,7.8-4.85-6.18a2.57,2.57,0,0,0-3.8-.27l0,0a2.57,2.57,0,0,0-.57,2.92l3.51,7.83L189.71,131a1.48,1.48,0,0,0-2.06.12v0a1.49,1.49,0,0,0-.21,1.71l13,23.68Z" transform="translate(-84.69 -44.91)"/><path class="cls-45" d="M247,147s-3.49,1-9,7.28-14.91,13.85-14.91,13.85l-15.92-40.7a2,2,0,0,0-2.61-1.13h0a2,2,0,0,0-1.23,2.3l1.68,7.59s-9.06,5.28-5.55,17.29c2.06,7.08,9.53,20.8,15.3,30.86a10.54,10.54,0,0,0,16.82,2l20.34-21.62Z" transform="translate(-84.69 -44.91)"/><line class="cls-55" x1="138.4" y1="123.22" x2="142.17" y2="130.9"/><path class="cls-46" d="M230.81,187a11.51,11.51,0,0,0-15.52-1.81A10.52,10.52,0,0,0,230.81,187Z" transform="translate(-84.69 -44.91)"/><polygon class="cls-49" points="158.96 132.28 159.31 128.19 165.38 121.74 158.96 132.28"/><line class="cls-47" x1="258.88" y1="94.11" x2="253.28" y2="96"/><line class="cls-47" x1="258.39" y1="90.82" x2="252.79" y2="92.71"/><line class="cls-47" x1="252.79" y1="92.71" x2="253.28" y2="100.91"/></g></g></svg>