<svg width="83" height="40" viewBox="0 0 83 40" fill="none" xmlns="http://www.w3.org/2000/svg">
<path d="M6.854 0.88V29H0.356V0.88H6.854ZM21.215 29.304C19.1377 29.304 17.263 28.8607 15.591 27.974C13.9444 27.0873 12.6397 25.8207 11.677 24.174C10.7397 22.5273 10.271 20.602 10.271 18.398C10.271 16.2193 10.7524 14.3067 11.715 12.66C12.6777 10.988 13.995 9.70867 15.667 8.822C17.339 7.93533 19.2137 7.492 21.291 7.492C23.3684 7.492 25.243 7.93533 26.915 8.822C28.587 9.70867 29.9044 10.988 30.867 12.66C31.8297 14.3067 32.311 16.2193 32.311 18.398C32.311 20.5767 31.817 22.502 30.829 24.174C29.8664 25.8207 28.5364 27.0873 26.839 27.974C25.167 28.8607 23.2924 29.304 21.215 29.304ZM21.215 23.68C22.4564 23.68 23.5077 23.224 24.369 22.312C25.2557 21.4 25.699 20.0953 25.699 18.398C25.699 16.7007 25.2684 15.396 24.407 14.484C23.571 13.572 22.5324 13.116 21.291 13.116C20.0244 13.116 18.973 13.572 18.137 14.484C17.301 15.3707 16.883 16.6753 16.883 18.398C16.883 20.0953 17.2884 21.4 18.099 22.312C18.935 23.224 19.9737 23.68 21.215 23.68ZM43.8143 7.492C45.309 7.492 46.6137 7.796 47.7283 8.404C48.8683 9.012 49.7423 9.81 50.3503 10.798V7.796H56.8483V28.962C56.8483 30.9127 56.4557 32.6733 55.6703 34.244C54.9103 35.84 53.7323 37.1067 52.1363 38.044C50.5657 38.9813 48.6023 39.45 46.2463 39.45C43.105 39.45 40.559 38.7027 38.6083 37.208C36.6577 35.7387 35.543 33.7373 35.2643 31.204H41.6863C41.889 32.0147 42.3703 32.648 43.1303 33.104C43.8903 33.5853 44.8277 33.826 45.9423 33.826C47.285 33.826 48.349 33.4333 49.1343 32.648C49.945 31.888 50.3503 30.6593 50.3503 28.962V25.96C49.717 26.948 48.843 27.7587 47.7283 28.392C46.6137 29 45.309 29.304 43.8143 29.304C42.0663 29.304 40.483 28.8607 39.0643 27.974C37.6457 27.062 36.5183 25.7827 35.6823 24.136C34.8717 22.464 34.4663 20.5387 34.4663 18.36C34.4663 16.1813 34.8717 14.2687 35.6823 12.622C36.5183 10.9753 37.6457 9.70867 39.0643 8.822C40.483 7.93533 42.0663 7.492 43.8143 7.492ZM50.3503 18.398C50.3503 16.7767 49.8943 15.4973 48.9823 14.56C48.0957 13.6227 47.0063 13.154 45.7143 13.154C44.4223 13.154 43.3203 13.6227 42.4083 14.56C41.5217 15.472 41.0783 16.7387 41.0783 18.36C41.0783 19.9813 41.5217 21.2733 42.4083 22.236C43.3203 23.1733 44.4223 23.642 45.7143 23.642C47.0063 23.642 48.0957 23.1733 48.9823 22.236C49.8943 21.2987 50.3503 20.0193 50.3503 18.398ZM71.2014 29.304C69.124 29.304 67.2494 28.8607 65.5774 27.974C63.9307 27.0873 62.626 25.8207 61.6634 24.174C60.726 22.5273 60.2574 20.602 60.2574 18.398C60.2574 16.2193 60.7387 14.3067 61.7014 12.66C62.664 10.988 63.9814 9.70867 65.6534 8.822C67.3254 7.93533 69.2 7.492 71.2774 7.492C73.3547 7.492 75.2294 7.93533 76.9014 8.822C78.5734 9.70867 79.8907 10.988 80.8534 12.66C81.816 14.3067 82.2974 16.2193 82.2974 18.398C82.2974 20.5767 81.8034 22.502 80.8154 24.174C79.8527 25.8207 78.5227 27.0873 76.8254 27.974C75.1534 28.8607 73.2787 29.304 71.2014 29.304ZM71.2014 23.68C72.4427 23.68 73.494 23.224 74.3554 22.312C75.242 21.4 75.6854 20.0953 75.6854 18.398C75.6854 16.7007 75.2547 15.396 74.3934 14.484C73.5574 13.572 72.5187 13.116 71.2774 13.116C70.0107 13.116 68.9594 13.572 68.1234 14.484C67.2874 15.3707 66.8694 16.6753 66.8694 18.398C66.8694 20.0953 67.2747 21.4 68.0854 22.312C68.9214 23.224 69.96 23.68 71.2014 23.68Z" fill="content"/>
</svg>
